<svg width="60" height="28" viewBox="0 0 60 28" fill="none" xmlns="http://www.w3.org/2000/svg">
<path fill-rule="evenodd" clip-rule="evenodd" d="M20.6416 27.9997H59.9486V6.46161H20.6416V27.9997Z" fill="#004D71"/>
<path fill-rule="evenodd" clip-rule="evenodd" d="M20.6416 23.4661V27.9999H23L26.6723 23.4661H20.647H20.6416Z" fill="#00374A"/>
<path fill-rule="evenodd" clip-rule="evenodd" d="M52.6524 12.675C50.8271 12.675 49.3678 13.2189 48.4848 14.2096C47.6502 15.1627 47.144 16.4388 47.144 18.1134C47.144 19.788 47.661 21.2472 48.544 22.1356C49.4648 23.0564 50.9132 23.3956 52.5716 23.3956C53.7616 23.3956 55.1293 23.0887 55.8347 22.701L56.05 20.251H55.6031C55.1939 21.7856 54.4401 22.8948 52.4963 22.8948C49.4486 22.8948 48.8079 19.8526 48.8079 18.0595C48.8079 15.6311 49.7717 13.1758 52.5286 13.1919C54.0362 13.1919 55.0862 13.8865 55.3662 15.5396H55.7916V13.2673C55.0862 12.9604 54.0039 12.6912 52.6578 12.6912L52.6524 12.675Z" fill="white"/>
<path fill-rule="evenodd" clip-rule="evenodd" d="M28.3418 12.939V13.3536C29.6395 13.4344 29.6395 13.4721 29.6395 14.2959V21.7966C29.6395 22.6204 29.6395 22.6473 28.3418 22.7389V23.1965H35.9878L36.1655 20.4827H35.7186C35.4224 22.4858 34.5986 22.6312 33.0479 22.6312C32.3048 22.6312 31.7502 22.6096 31.4433 22.4912C31.3302 22.3835 31.3087 21.2635 31.1202 14.3175C31.0933 13.4936 30.9964 13.4344 32.4717 13.3375V12.939H28.3472H28.3418Z" fill="white"/>
<path fill-rule="evenodd" clip-rule="evenodd" d="M36.3535 12.939V13.3536C37.6512 13.4344 37.7643 13.4721 37.7643 14.2959V21.7966C37.7643 22.6204 37.6458 22.6473 36.3535 22.7389V23.1965H41.0165C42.3357 23.1965 43.6765 22.9973 44.7749 22.2435C45.8734 21.4896 46.6972 20.0951 46.6972 17.8713C46.6972 16.3744 46.2718 15.0874 45.3672 14.2152C44.4034 13.3052 43.0842 12.939 41.3019 12.939H36.3535ZM40.8981 13.4236C44.0803 13.4829 45.0334 15.4051 45.0334 17.9143C45.0334 21.6512 43.208 22.6419 40.7204 22.6419C39.4388 22.6419 39.175 22.475 39.175 21.312V14.2744C39.175 13.4936 39.3042 13.4236 40.8927 13.4236H40.8981Z" fill="white"/>
<path fill-rule="evenodd" clip-rule="evenodd" d="M57.4237 23.3147C57.9406 23.3147 58.3552 22.9001 58.3552 22.3832C58.3552 21.8662 57.9406 21.4516 57.4237 21.4516C56.9068 21.4516 56.4922 21.8662 56.4922 22.3832C56.4922 22.9001 56.9014 23.3147 57.4237 23.3147Z" fill="#4E9D2D"/>
<path fill-rule="evenodd" clip-rule="evenodd" d="M0.0512695 23.4658H26.6723V0H0.0512695V23.4658Z" fill="#FDFEFC"/>
<path fill-rule="evenodd" clip-rule="evenodd" d="M2.87305 16.7568V16.2614C3.69688 16.1914 4.18149 16.1214 4.27302 15.3999C4.35379 14.8345 4.40225 14.183 4.40225 13.2784V6.49927C4.40225 5.54621 4.40225 5.50852 2.87305 5.40083V4.84622H6.31376C6.92759 6.38081 7.64373 7.91002 8.3168 9.43384L10.3414 14.043H10.3791L12.4306 9.42307C13.1144 7.9154 13.809 6.38081 14.3959 4.84622H17.8366V5.40083C16.3074 5.50852 16.3074 5.54083 16.3074 6.49927V15.1684C16.3074 16.1214 16.3074 16.1591 17.8366 16.2668V16.7622H13.0067V16.2668C14.5359 16.1591 14.6544 16.1268 14.6544 15.1684V6.49927H14.5467L10.0829 16.5199H9.62524L5.20993 6.49927H5.11839V13.2784C5.11839 14.1884 5.16685 14.8345 5.24762 15.3999C5.35531 16.116 5.82376 16.1645 6.88451 16.2614V16.7568H2.87843H2.87305Z" fill="#004D71"/>
<path d="M22.8272 16.7566H19.3326V16.2719C19.4457 16.2612 19.5587 16.2504 19.6826 16.245C19.8064 16.2396 19.9087 16.2181 19.9949 16.1858C20.1295 16.1427 20.2318 16.0673 20.3018 15.9543C20.3718 15.8412 20.3987 15.7012 20.3987 15.5235V11.0597C20.3987 10.9036 20.361 10.7582 20.291 10.629C20.221 10.4997 20.1187 10.392 19.9949 10.3059C19.9034 10.2467 19.7687 10.1982 19.5911 10.1551C19.4134 10.1121 19.2518 10.0905 19.1064 10.0797V9.59514L21.6587 9.4336L21.761 9.53591V15.4373C21.761 15.6096 21.7933 15.7497 21.8579 15.8627C21.9226 15.9758 22.0249 16.0566 22.1649 16.1104C22.2725 16.1535 22.3749 16.1912 22.4772 16.2181C22.5795 16.245 22.6925 16.2612 22.8218 16.2719V16.7566H22.8272ZM21.9118 6.57442C21.9118 6.85442 21.8202 7.09672 21.6372 7.30672C21.4541 7.51671 21.2279 7.61902 20.9587 7.61902C20.711 7.61902 20.4903 7.5221 20.3072 7.32287C20.1241 7.12364 20.0326 6.8975 20.0326 6.64442C20.0326 6.3752 20.1241 6.13827 20.3072 5.93904C20.4903 5.73982 20.7056 5.63751 20.9587 5.63751C21.2387 5.63751 21.4649 5.72905 21.6426 5.91751C21.8202 6.10597 21.9118 6.32673 21.9118 6.57442Z" fill="#004D71"/>
</svg>
